<svg width="242" height="71" fill="none" xmlns="http://www.w3.org/2000/svg"><path d="M188.365 46.387a10.986 10.986 0 01-6.442-1.879 10.042 10.042 0 01-4.242-6.926 12.686 12.686 0 01.806-7.284 9.696 9.696 0 016.818-5.69 12.757 12.757 0 014.939-.251 9.812 9.812 0 018.286 6.64 12.3 12.3 0 01.555 6.675 10.037 10.037 0 01-9.574 8.661l-1.146.054zm-7.284-11.15a8.29 8.29 0 001.253 4.761 6.842 6.842 0 004.975 3.043 7.355 7.355 0 005.369-1.217 6.708 6.708 0 002.667-3.83 9.15 9.15 0 00-.161-5.906 6.678 6.678 0 00-5.852-4.546 6.998 6.998 0 00-6.819 2.738 7.858 7.858 0 00-1.432 4.958zM87.323 44.74a10.344 10.344 0 01-6.478 1.683 13.852 13.852 0 01-8-2.524l-.573-.411 1.79-2.667.465.305a10.952 10.952 0 008.716 1.79 5.37 5.37 0 001.79-.788 2.417 2.417 0 00-.269-4.26 10.163 10.163 0 00-3.221-.966 22.386 22.386 0 01-5.172-1.199 5.496 5.496 0 01-3.257-7.302 5.763 5.763 0 013.024-3.096 11.256 11.256 0 017.302-.733c1.535.328 2.996.934 4.313 1.79l.966.661-1.79 2.506-.59-.376a9.896 9.896 0 00-6.335-1.61 5.726 5.726 0 00-2.739.966 2.327 2.327 0 00.305 4.098c1.11.431 2.253.773 3.418 1.02 1.664.447 3.364.752 5.01 1.27a5.261 5.261 0 013.061 2.417 5.834 5.834 0 01-1.736 7.426zM111.303 38.602a7.999 7.999 0 01-7.158 7.606c-2.19.41-4.454.108-6.46-.86a7.928 7.928 0 01-4.17-5.672c-.18-1.01-.27-2.034-.269-3.06V24.66h3.49v11.955c-.006.88.096 1.757.304 2.612A5.208 5.208 0 00103 43.04a5.37 5.37 0 004.849-5.709v-12.67h3.58s.053 11.758-.126 13.941zM176.105 42.61v3.347H161.43V24.643h3.507l.018 17.968h11.15zM134.479 45.957h-3.203l-11.4-15.23v15.23h-3.508V24.661h3.186l11.453 15.247-.036-15.247h3.49l.018 21.296zM155.327 35.685c-.34-.268-.68-.501-1.055-.77a5.832 5.832 0 002.416-5.368 4.854 4.854 0 00-2.273-3.777 8.251 8.251 0 00-4.671-1.145H139.65v21.297h10.738c.555 0 1.11 0 1.664-.143a6.318 6.318 0 004.242-2.184 5.762 5.762 0 00-.967-7.91zm-12.151-7.874h6.908a4.919 4.919 0 011.664.393 2.665 2.665 0 01-.483 5.011 7.586 7.586 0 01-1.557.215h-6.568l.036-5.62zm10.612 12.706a2.756 2.756 0 01-2.63 2.076h-8.018v-6.085h6.944a4.116 4.116 0 012.72.752 2.953 2.953 0 01.949 3.257h.035zM242 45.957h-4.814l-9.163-9.628-.018 9.628h-3.543V24.643h3.561v9.091l8.447-9.09h4.6l-9.682 10.325L242 45.957zM213.026 24.267c-.97.003-1.936.111-2.882.323a10.325 10.325 0 00-7.999 8.59 12.046 12.046 0 00.286 5.476 10.203 10.203 0 003.042 4.993 10.435 10.435 0 007.159 2.649h1.789a10.396 10.396 0 006.246-2.65l.483-.447-2.29-2.362-.555.483a7.355 7.355 0 01-3.919 1.629c-.444.07-.893.106-1.343.107a7.156 7.156 0 01-5.368-2.362 7.962 7.962 0 01-2.058-6.693 7.286 7.286 0 012.29-4.635 7.571 7.571 0 015.19-1.987 7.661 7.661 0 014.85 1.7l.662.573 2.327-2.219-.501-.447a10.463 10.463 0 00-3.007-1.933c-1.4-.56-2.895-.845-4.402-.841M49.107 13.565l-12.51 7.051-11.524-6.496-12.546 7.087L0 14.156 25.073 0l24.034 13.565z" fill="#E2E2E2"/><path d="M50.108 28.24L38.583 34.72l-12.527-7.051 24.052-13.512V28.24z" fill="#fff"/><path d="M25.055 56.48v14.102L0 56.498v-14.12L25.055 56.48zM49.09 41.806l-12.528 7.05-11.507-6.478L0 28.258V14.156l12.527 7.051L49.09 41.806z" fill="#E2E2E2"/><path d="M50.108 56.498l-24.052 13.53v-14.12l24.052-13.53v14.12z" fill="#fff"/></svg>