<svg xmlns="http://www.w3.org/2000/svg" width="50" viewBox="0 0 94.94 71.4"><defs><style>.li-1{fill:none}.li-2{fill:#fff}</style></defs><g><g id="Layer_2-2" data-name="Layer 2"><path d="M18.62 0v17H9.31v14.4H0v40h76.32V57h9.31V40h9.31V0zM66 4h10.48v13H66zM51.55 4H62v13H51.55zM37.08 4h10.47v13H37.08zM22.62 4h10.46v13H22.62zm49.7 63.4H4v-32h68.32zM81.63 53h-5.31v-3.2h5.31zm0-7.2h-5.31v-3.2h5.31zm0-7.2h-5.31v-3.2h5.31zm0-7.2H13.31v-3.2h68.32zm0-7.2H13.31V21h68.32zM90.94 36h-5.31V17h-5.15V4h10.46z" fill="#231f20"/><path class="li-1" d="M13.31 28.2h68.32v3.2H13.31zM76.32 35.4h5.31v3.2h-5.31z"/><path class="li-2" d="M76.32 42.6h5.31v3.2h-5.31zM76.32 49.8h5.31V53h-5.31z"/><path class="li-1" d="M13.31 21h68.32v3.2H13.31zM4 35.4h68.32v32H4z"/></g></g></svg>