<svg xmlns="http://www.w3.org/2000/svg" viewBox="0 0 80.45 80.15"><defs><style>.li-3{fill:#231f20}</style></defs><g><g data-name="Layer 2"><path class="li-3" d="M30 51.68l-20-20 2.32-2.32-8.67-4.95L0 28.06l4.79 8.75 2.34-2.35 20 20-.48 10.28 15.42 15.41 13-.6.59-13-15.4-15.34zm21.55 16.48L51.34 73l-.12 2.7-2.71.13-4.87.22L30.77 63.2l.35-7.57 7.57-.34z"/><path fill="none" d="M24.76 17.83l2.83 2.83 6.7-6.69 4.16 4.15-2.73 2.73 2.82 2.83 2.73-2.73 4.16 4.16-6.7 6.7 2.83 2.82 6.7-6.69 4.16 4.16-2.73 2.73 2.83 2.82 2.73-2.73 4.15 4.16-6.69 6.7 2.83 2.83 6.69-6.7 4.16 4.16-2.73 2.73 2.83 2.83 2.73-2.73 4.68 4.68-9.49 9.49-47.03-47.03 9.49-9.49 4.59 4.59-6.7 6.69z"/><path class="li-3" d="M10.83 16l53.59 53.62 16-16L26.87 0zm30.44 5l4.16 4.16-6.7 6.7 2.83 2.82 6.7-6.69 4.16 4.16-2.73 2.73 2.83 2.82 2.73-2.73 4.15 4.16-6.69 6.7 2.83 2.83 6.69-6.7 4.16 4.16-2.73 2.68 2.83 2.83 2.73-2.73 4.68 4.68-9.49 9.49-47-47 9.49-9.49 4.59 4.59-6.7 6.69 2.83 2.83L34.29 14l4.16 4.15-2.73 2.73 2.82 2.83z"/></g></g></svg>